<?xml version="1.0" encoding="utf-8"?>
<!-- Generator: Adobe Illustrator 24.0.0, SVG Export Plug-In . SVG Version: 6.00 Build 0)  -->
<svg version="1.2" baseProfile="tiny" id="Layer_1" xmlns="http://www.w3.org/2000/svg" xmlns:xlink="http://www.w3.org/1999/xlink"
	 x="0px" y="0px" viewBox="0 0 862.92 1000" xml:space="preserve">
<g>
	<polygon fill="#5EB771" points="861.04,749.27 861.04,251.07 429.58,1.97 -1.88,251.07 -1.88,749.27 429.58,998.38 	"/>
	<g>
		<g>
			<polygon fill="#528456" points="633.49,334.64 649.86,266.92 719.33,261.56 745.89,325.98 692.84,371.14 			"/>
			<polygon fill="#548E57" points="664.78,350.27 644.67,301.5 684.83,267.31 729.77,294.94 717.37,346.22 			"/>
			<polygon fill="#58A05D" points="692.97,341.48 661.74,325.6 667.19,290.99 701.79,285.48 717.72,316.68 			"/>
			<polygon fill="#5BB25E" points="700.22,323.98 680.62,327.09 671.61,309.41 685.64,295.37 703.32,304.38 			"/>
		</g>
		<g>
			<polygon fill="#528456" points="596.36,208.84 647.35,172.17 697.98,209.33 678.28,268.97 615.48,268.66 			"/>
			<polygon fill="#548E57" points="608.56,237.9 623.47,192.75 671.02,192.99 685.5,238.28 646.89,266.04 			"/>
			<polygon fill="#58A05D" points="633,248.46 620.98,219.26 645.05,198.81 671.93,215.37 664.48,246.06 			"/>
			<polygon fill="#5BB25E" points="648.23,240.77 633.01,231.37 637.24,213.99 655.08,212.65 661.87,229.19 			"/>
		</g>
		<g>
			<polygon fill="#528456" points="404.72,658.66 375.69,595.32 426.96,548.14 487.68,582.32 473.93,650.63 			"/>
			<polygon fill="#548E57" points="438.97,651.59 393,625.71 403.41,573.99 455.81,567.91 477.79,615.87 			"/>
			<polygon fill="#58A05D" points="455.68,627.24 421.33,634.08 404.2,603.52 427.98,577.79 459.79,592.45 			"/>
			<polygon fill="#5BB25E" points="450.56,609.01 437.08,623.57 419.06,615.25 421.41,595.55 440.87,591.69 			"/>
		</g>
		<g>
			<polygon fill="#528456" points="720.38,701.77 736.75,634.04 806.22,628.69 832.78,693.1 779.73,738.27 			"/>
			<polygon fill="#548E57" points="751.67,717.39 731.56,668.63 771.73,634.43 816.66,662.07 804.26,713.34 			"/>
			<polygon fill="#58A05D" points="779.86,708.6 748.63,692.72 754.08,658.12 788.68,652.61 804.61,683.81 			"/>
			<polygon fill="#5BB25E" points="787.11,691.11 767.51,694.21 758.5,676.53 772.53,662.5 790.21,671.51 			"/>
		</g>
		<g>
			<polygon fill="#528456" points="354.27,934.4 297.29,894.3 317.82,827.72 387.49,826.67 410.01,892.6 			"/>
			<polygon fill="#548E57" points="380.29,911.04 327.55,911.83 310.49,861.91 352.7,830.27 395.84,860.63 			"/>
			<polygon fill="#58A05D" points="382.47,881.59 356.23,904.8 326.05,887.02 333.63,852.82 368.5,849.46 			"/>
			<polygon fill="#5BB25E" points="368.86,868.42 364.55,887.79 344.79,889.68 336.9,871.47 351.77,858.33 			"/>
		</g>
		<g>
			<polygon fill="#528456" points="123.04,752.94 166.62,698.57 231.79,723.22 228.49,792.82 161.27,811.19 			"/>
			<polygon fill="#548E57" points="144.73,780.37 147.23,727.68 198.11,713.78 227.06,757.87 194.07,799.03 			"/>
			<polygon fill="#58A05D" points="173.99,784.38 152.46,756.75 172.08,727.73 205.75,737.43 206.92,772.44 			"/>
			<polygon fill="#5BB25E" points="187.98,771.62 168.91,766.11 168.27,746.28 186.93,739.53 199.11,755.2 			"/>
		</g>
		<g>
			<polygon fill="#528456" points="68.36,504.64 136.33,489.3 171.91,549.21 125.94,601.56 61.94,574.02 			"/>
			<polygon fill="#548E57" points="68.21,539.61 103.02,499.97 151.47,520.83 146.61,573.35 95.15,584.96 			"/>
			<polygon fill="#58A05D" points="88.59,560.99 88.98,525.96 122.42,515.51 142.69,544.08 121.78,572.19 			"/>
			<polygon fill="#5BB25E" points="107.48,559.73 96.01,543.54 107.87,527.63 126.67,533.99 126.43,553.83 			"/>
		</g>
		<g>
			<polygon fill="#528456" points="311.22,810.06 331.36,726.75 416.82,720.16 449.49,799.4 384.23,854.96 			"/>
			<polygon fill="#548E57" points="349.71,829.29 324.97,769.3 374.38,727.23 429.66,761.23 414.41,824.3 			"/>
			<polygon fill="#58A05D" points="384.39,818.47 345.98,798.94 352.68,756.37 395.24,749.59 414.84,787.97 			"/>
			<polygon fill="#5BB25E" points="393.31,796.95 369.2,800.77 358.11,779.02 375.38,761.76 397.13,772.84 			"/>
		</g>
		<g>
			<polygon fill="#528456" points="153.36,248.36 173.51,165.05 258.96,158.46 291.64,237.7 226.37,293.26 			"/>
			<polygon fill="#548E57" points="191.85,267.59 167.11,207.6 216.53,165.53 271.8,199.53 256.55,262.6 			"/>
			<polygon fill="#58A05D" points="226.53,256.77 188.12,237.24 194.82,194.67 237.38,187.89 256.98,226.27 			"/>
			<polygon fill="#5BB25E" points="235.45,235.25 211.34,239.07 200.26,217.32 217.52,200.06 239.27,211.14 			"/>
		</g>
		<g>
			<polygon fill="#528456" points="179.4,679.26 230.39,642.59 281.02,679.75 261.32,739.39 198.51,739.08 			"/>
			<polygon fill="#548E57" points="191.6,708.33 206.51,663.18 254.06,663.41 268.53,708.7 229.93,736.46 			"/>
			<polygon fill="#58A05D" points="216.04,718.88 204.02,689.68 228.08,669.23 254.97,685.8 247.52,716.48 			"/>
			<polygon fill="#5BB25E" points="231.27,711.19 216.05,701.79 220.28,684.41 238.12,683.07 244.91,699.62 			"/>
		</g>
		<g>
			<polygon fill="#528456" points="706.14,699.14 764.3,722.87 759.7,785.51 698.71,800.49 665.61,747.12 			"/>
			<polygon fill="#548E57" points="688,724.92 734.17,713.57 759.23,753.99 728.54,790.31 684.52,772.34 			"/>
			<polygon fill="#58A05D" points="692.03,751.23 710.39,725.54 740.5,735.07 740.75,766.65 710.79,776.64 			"/>
			<polygon fill="#5BB25E" points="706.64,760.05 706.52,742.17 723.49,736.52 734.11,750.92 723.69,765.46 			"/>
		</g>
		<g>
			<polygon fill="#528456" points="380.96,863.78 431.95,827.11 482.58,864.27 462.88,923.91 400.07,923.6 			"/>
			<polygon fill="#548E57" points="393.16,892.85 408.07,847.7 455.62,847.93 470.09,893.22 431.49,920.98 			"/>
			<polygon fill="#58A05D" points="417.6,903.4 405.58,874.2 429.64,853.75 456.53,870.32 449.08,901 			"/>
			<polygon fill="#5BB25E" points="432.83,895.71 417.61,886.31 421.84,868.93 439.68,867.59 446.47,884.14 			"/>
		</g>
		<g>
			<polygon fill="#528456" points="360.07,466.16 343.69,533.89 274.22,539.24 247.66,474.83 300.72,429.66 			"/>
			<polygon fill="#548E57" points="328.78,450.53 348.89,499.3 308.72,533.5 263.79,505.86 276.18,454.59 			"/>
			<polygon fill="#58A05D" points="300.59,459.33 331.81,475.21 326.36,509.81 291.77,515.32 275.84,484.12 			"/>
			<polygon fill="#5BB25E" points="293.34,476.82 312.94,473.72 321.94,491.4 307.91,505.43 290.23,496.42 			"/>
		</g>
		<g>
			<polygon fill="#528456" points="153.01,746.82 102.02,783.49 51.39,746.33 71.09,686.69 133.9,687 			"/>
			<polygon fill="#548E57" points="140.81,717.75 125.9,762.9 78.35,762.67 63.88,717.38 102.48,689.62 			"/>
			<polygon fill="#58A05D" points="116.38,707.19 128.39,736.4 104.33,756.85 77.44,740.28 84.89,709.6 			"/>
			<polygon fill="#5BB25E" points="101.14,714.89 116.36,724.29 112.13,741.67 94.29,743.01 87.5,726.46 			"/>
		</g>
		<g>
			<polygon fill="#528456" points="116.67,431.09 122.17,500.55 57.81,527.24 12.53,474.28 48.92,414.85 			"/>
			<polygon fill="#548E57" points="82.08,425.97 116.35,466.06 88.81,511.05 37.51,498.76 33.35,446.17 			"/>
			<polygon fill="#58A05D" points="58.02,443.09 92.63,448.47 98.21,483.06 67.04,499.05 42.2,474.35 			"/>
			<polygon fill="#5BB25E" points="56.56,461.97 74.23,452.93 88.29,466.93 79.31,484.63 59.71,481.56 			"/>
		</g>
		<g>
			<polygon fill="#528456" points="468.57,59.45 525.55,99.55 505.02,166.14 435.35,167.18 412.83,101.25 			"/>
			<polygon fill="#548E57" points="442.55,82.81 495.29,82.02 512.34,131.94 470.14,163.58 427,133.22 			"/>
			<polygon fill="#58A05D" points="440.37,112.27 466.61,89.05 496.79,106.83 489.21,141.03 454.34,144.39 			"/>
			<polygon fill="#5BB25E" points="453.98,125.43 458.29,106.06 478.04,104.18 485.94,122.38 471.07,135.52 			"/>
		</g>
		<g>
			<polygon fill="#528456" points="523.73,319.16 480.15,373.52 414.98,348.88 418.29,279.28 485.5,260.91 			"/>
			<polygon fill="#548E57" points="502.04,291.73 499.54,344.42 448.66,358.32 419.71,314.22 452.7,273.07 			"/>
			<polygon fill="#58A05D" points="472.78,287.72 494.31,315.35 474.69,344.37 441.02,334.67 439.85,299.65 			"/>
			<polygon fill="#5BB25E" points="458.79,300.48 477.86,305.99 478.51,325.82 459.84,332.57 447.66,316.9 			"/>
		</g>
		<g>
			<polygon fill="#528456" points="810.07,496.04 740.7,489.48 725.5,421.48 785.48,386.02 837.74,432.1 			"/>
			<polygon fill="#548E57" points="821.08,462.85 775.67,489.7 736.11,454.81 757.06,406.4 809.57,411.36 			"/>
			<polygon fill="#58A05D" points="808.36,436.19 797.09,469.36 762.06,468.9 751.68,435.44 780.29,415.23 			"/>
			<polygon fill="#5BB25E" points="790.01,431.51 795.88,450.47 779.66,461.9 763.77,450.01 770.17,431.23 			"/>
		</g>
		<g>
			<polygon fill="#528456" points="536.38,488.63 589.4,555.98 541.73,627.21 459.25,603.88 455.95,518.24 			"/>
			<polygon fill="#548E57" points="497.47,506.99 559.92,524.64 562.42,589.49 501.52,611.9 461.38,560.91 			"/>
			<polygon fill="#58A05D" points="484.53,540.93 523.63,522.82 552.94,554.41 531.95,592.05 489.67,583.72 			"/>
			<polygon fill="#5BB25E" points="495.92,561.25 507.83,539.94 531.78,544.68 534.67,568.92 512.51,579.16 			"/>
		</g>
		<g>
			<polygon fill="#528456" points="532.9,333.75 575.24,408.27 517.45,471.57 439.39,436.16 448.94,350.99 			"/>
			<polygon fill="#548E57" points="491.68,346.08 550.78,372.88 543.55,437.37 479.98,450.42 447.93,394 			"/>
			<polygon fill="#58A05D" points="473.8,377.7 515.18,365.65 539.43,401.27 513.04,435.34 472.48,420.77 			"/>
			<polygon fill="#5BB25E" points="482.03,399.49 496.99,380.21 519.96,388.48 519.19,412.88 495.75,419.68 			"/>
		</g>
		<g>
			<polygon fill="#528456" points="741.87,641.68 721.73,724.99 636.27,731.58 603.6,652.34 668.86,596.78 			"/>
			<polygon fill="#548E57" points="703.38,622.46 728.12,682.45 678.71,724.51 623.44,690.52 638.69,627.44 			"/>
			<polygon fill="#58A05D" points="668.7,633.27 707.12,652.81 700.41,695.37 657.85,702.15 638.26,663.77 			"/>
			<polygon fill="#5BB25E" points="659.78,654.79 683.89,650.97 694.98,672.72 677.72,689.98 655.97,678.9 			"/>
		</g>
		<g>
			<polygon fill="#528456" points="665.43,493.76 628.04,522.63 590.92,493.37 605.36,446.42 651.41,446.66 			"/>
			<polygon fill="#548E57" points="656.48,470.88 645.55,506.42 610.69,506.24 600.07,470.58 628.38,448.72 			"/>
			<polygon fill="#58A05D" points="638.56,462.56 647.37,485.56 629.73,501.66 610.02,488.61 615.48,464.45 			"/>
			<polygon fill="#5BB25E" points="627.39,468.62 638.55,476.02 635.45,489.7 622.37,490.76 617.39,477.73 			"/>
		</g>
		<g>
			<polygon fill="#528456" points="184.66,341.17 126.51,317.45 131.1,254.81 192.09,239.82 225.19,293.2 			"/>
			<polygon fill="#548E57" points="202.81,315.39 156.63,326.74 131.57,286.33 162.26,250.01 206.29,267.97 			"/>
			<polygon fill="#58A05D" points="198.77,289.08 180.41,314.77 150.3,305.25 150.06,273.67 180.01,263.68 			"/>
			<polygon fill="#5BB25E" points="184.16,280.26 184.28,298.15 167.31,303.79 156.7,289.39 167.11,274.85 			"/>
		</g>
		<g>
			<polygon fill="#528456" points="441.88,130.08 390.89,166.74 340.26,129.58 359.96,69.94 422.77,70.25 			"/>
			<polygon fill="#548E57" points="429.68,101.01 414.77,146.16 367.22,145.92 352.74,100.63 391.35,72.87 			"/>
			<polygon fill="#58A05D" points="405.24,90.45 417.26,119.65 393.19,140.1 366.31,123.54 373.76,92.85 			"/>
			<polygon fill="#5BB25E" points="390.01,98.14 405.23,107.54 401,124.92 383.16,126.27 376.37,109.72 			"/>
		</g>
		<g>
			<polygon fill="#528456" points="790.47,538.14 739.48,574.8 688.85,537.64 708.55,478 771.36,478.31 			"/>
			<polygon fill="#548E57" points="778.27,509.07 763.36,554.22 715.81,553.99 701.33,508.69 739.94,480.93 			"/>
			<polygon fill="#58A05D" points="753.83,498.51 765.85,527.71 741.78,548.16 714.9,531.6 722.35,500.91 			"/>
			<polygon fill="#5BB25E" points="738.6,506.21 753.82,515.6 749.59,532.98 731.75,534.33 724.96,517.78 			"/>
		</g>
		<g>
			<polygon fill="#528456" points="342.44,577.12 291.45,613.79 240.82,576.63 260.52,516.99 323.33,517.3 			"/>
			<polygon fill="#548E57" points="330.24,548.06 315.33,593.21 267.78,592.97 253.3,547.68 291.91,519.92 			"/>
			<polygon fill="#58A05D" points="305.8,537.5 317.82,566.7 293.75,587.15 266.87,570.59 274.32,539.9 			"/>
			<polygon fill="#5BB25E" points="290.57,545.19 305.79,554.59 301.56,571.97 283.72,573.31 276.93,556.77 			"/>
		</g>
		<g>
			<polygon fill="#528456" points="576.16,785.83 538.78,814.7 501.65,785.44 516.1,738.49 562.15,738.73 			"/>
			<polygon fill="#548E57" points="567.22,762.94 556.28,798.49 521.42,798.31 510.81,762.65 539.11,740.79 			"/>
			<polygon fill="#58A05D" points="549.3,754.63 558.11,777.62 540.46,793.72 520.75,780.68 526.21,756.52 			"/>
			<polygon fill="#5BB25E" points="538.13,760.69 549.29,768.09 546.18,781.77 533.11,782.83 528.13,769.8 			"/>
		</g>
		<g>
			<polygon fill="#528456" points="367.28,325.59 329.9,354.46 292.78,325.2 307.22,278.24 353.27,278.49 			"/>
			<polygon fill="#548E57" points="358.34,302.7 347.4,338.25 312.54,338.07 301.93,302.41 330.23,280.55 			"/>
			<polygon fill="#58A05D" points="340.42,294.39 349.23,317.38 331.59,333.48 311.87,320.44 317.33,296.28 			"/>
			<polygon fill="#5BB25E" points="329.25,300.45 340.41,307.85 337.31,321.53 324.23,322.59 319.25,309.56 			"/>
		</g>
		<g>
			<polygon fill="#528456" points="191.62,458.93 154.23,487.8 117.11,458.53 131.56,411.58 177.6,411.82 			"/>
			<polygon fill="#548E57" points="182.67,436.04 171.74,471.59 136.88,471.4 126.26,435.74 154.57,413.89 			"/>
			<polygon fill="#58A05D" points="164.76,427.73 173.56,450.72 155.92,466.82 136.21,453.78 141.67,429.62 			"/>
			<polygon fill="#5BB25E" points="153.59,433.79 164.75,441.18 161.64,454.87 148.56,455.93 143.58,442.9 			"/>
		</g>
		<g>
			<polygon fill="#528456" points="780.91,248.49 761.05,291.35 714.62,282.5 705.79,234.18 746.76,213.16 			"/>
			<polygon fill="#548E57" points="762.42,232.31 769.11,268.89 738.09,284.81 712.23,258.06 727.27,225.61 			"/>
			<polygon fill="#58A05D" points="742.69,233.19 761.11,249.54 752.88,271.96 729.37,269.47 723.08,245.52 			"/>
			<polygon fill="#5BB25E" points="735.57,243.72 748.89,245.14 752.44,258.71 741.33,265.68 730.9,256.42 			"/>
		</g>
	</g>
</g>
</svg>
