<?xml version="1.0" encoding="utf-8"?>
<!-- Generator: Adobe Illustrator 24.0.0, SVG Export Plug-In . SVG Version: 6.00 Build 0)  -->
<svg version="1.2" baseProfile="tiny" id="Layer_1" xmlns="http://www.w3.org/2000/svg" xmlns:xlink="http://www.w3.org/1999/xlink"
	 x="0px" y="0px" viewBox="0 0 1000 1000" xml:space="preserve">
<g>
	<polygon fill="#98D6D8" points="821.14,283.23 696.37,455.86 610.56,315.26 	"/>
	<polygon fill="#98D6D8" points="651.26,143.42 664.26,356.02 508.76,301.73 	"/>
	<polygon fill="#E0ADAD" points="782.03,568.96 631.81,302.96 326.33,300.05 196.62,554.61 65.75,642.8 186.71,788.09 517.8,809.18 
		669.46,759.72 	"/>
	<polygon fill="#98D6D8" points="476.71,110.91 587.67,292.72 424.83,317.49 	"/>
	<polygon fill="#7BA8B2" points="269.35,621.31 261.77,651.21 252.77,649.25 259.12,624.2 230.51,596.34 192.08,607.19 
		185.15,634.49 176.15,632.53 184.46,599.78 233.12,586.03 	"/>
	<polygon fill="#E8BCBC" points="149.25,535.7 65.75,642.8 309.07,687.5 	"/>
	<polygon fill="#E0ADAD" points="125.98,331.2 244.32,349.06 348.29,393.94 286.44,221.38 	"/>
	<polygon fill="#E0ADAD" points="934.25,456.56 786.4,322.38 683.03,469.38 799.02,442.92 799.02,442.92 	"/>
	<polygon fill="#98D6D8" points="273.02,208.28 463.44,303.73 338.43,410.98 	"/>
	<polygon fill="#3B4C4C" points="140.22,583.71 120.8,592.83 120.8,631.62 	"/>
	<polygon fill="#3B4C4C" points="286.94,486.41 264.94,473.81 235.05,499.46 	"/>
	<polygon fill="#3B4C4C" points="404.23,506.66 432.39,498.5 467.37,538.31 	"/>
	<polygon fill="#7BA8B2" points="258.11,666.54 265.87,636.67 257.04,634.06 250.53,659.07 212.04,669.69 183.59,641.67 
		190.68,614.4 181.85,611.79 173.34,644.49 209.36,679.98 	"/>
	<polygon fill="#3B4C4C" points="163.53,583.71 190.07,596.17 190.07,649.17 	"/>
</g>
</svg>
