<?xml version="1.0" encoding="utf-8"?>
<!-- Generator: Adobe Illustrator 24.0.0, SVG Export Plug-In . SVG Version: 6.00 Build 0)  -->
<svg version="1.2" baseProfile="tiny" id="Layer_1" xmlns="http://www.w3.org/2000/svg" xmlns:xlink="http://www.w3.org/1999/xlink"
	 x="0px" y="0px" viewBox="0 0 862.92 1000" xml:space="preserve">
<g>
	<polygon fill="#A0F98D" points="863.24,749.27 863.24,251.07 431.79,1.97 0.33,251.07 0.33,749.27 431.79,998.38 	"/>
	<g>
		<polygon fill="#85E281" points="732.83,304.23 653.36,325.87 674.21,246.37 		"/>
		<polygon fill="#85E281" points="791.32,384.02 709.97,371.06 761.67,307.16 		"/>
		<polygon fill="#85E281" points="715.7,395.04 649.22,346.4 724.38,313.12 		"/>
		<polygon fill="#85E281" points="800.43,264.72 734.18,313.67 724.84,232.01 		"/>
		<polygon fill="#85E281" points="484.86,557.39 403.51,544.43 455.21,480.54 		"/>
		<polygon fill="#85E281" points="543.91,496.29 461.65,500.53 498.94,427.28 		"/>
		<polygon fill="#85E281" points="473.44,449 398,482.07 406.96,400.37 		"/>
		<polygon fill="#85E281" points="248.25,398.91 168.77,377.27 189.62,456.78 		"/>
		<polygon fill="#85E281" points="275.93,287.37 211.38,236.21 199.27,317.5 		"/>
		<polygon fill="#85E281" points="322.94,731.02 256.46,779.66 331.61,812.93 		"/>
		<polygon fill="#85E281" points="280.78,736.43 214.53,687.48 205.19,769.15 		"/>
		<polygon fill="#85E281" points="199.93,247.19 118.59,260.15 170.29,324.05 		"/>
		<polygon fill="#85E281" points="258.99,308.29 176.73,304.05 214.01,377.3 		"/>
		<polygon fill="#85E281" points="188.52,355.58 113.07,322.51 122.04,404.21 		"/>
		<polygon fill="#D7FCA3" points="687.07,287.12 694.06,264.42 716.17,255.73 736.74,267.6 740.29,291.08 724.15,308.5 
			700.46,306.74 		"/>
		<polygon fill="#D7FCA3" points="751.8,308.04 767.49,320.6 767.46,340.69 751.73,353.19 732.15,348.69 723.45,330.58 
			732.2,312.49 		"/>
		<polygon fill="#D7FCA3" points="707.22,341.22 695.16,334.07 693.22,320.19 702.86,310.01 716.83,311.21 724.61,322.88 
			720.33,336.23 		"/>
		<polygon fill="#D7FCA3" points="414.56,438.14 438.19,435.75 454.79,452.74 451.86,476.31 431.6,488.71 409.27,480.61 
			401.69,458.1 		"/>
		<polygon fill="#D7FCA3" points="315.85,752.87 310.39,772.21 291.87,779.99 274.23,770.36 270.76,750.57 284.08,735.52 
			304.14,736.55 		"/>
		<polygon fill="#D7FCA3" points="233.5,746.73 235.39,732.84 247.43,725.65 260.55,730.58 264.88,743.92 257.15,755.62 
			243.18,756.87 		"/>
		<polygon fill="#D7FCA3" points="160.77,284.45 167.76,261.75 189.87,253.06 210.44,264.93 214,288.41 197.85,305.83 
			174.16,304.07 		"/>
		<polygon fill="#D7FCA3" points="219.45,321.33 235.14,333.88 235.11,353.98 219.38,366.48 199.79,361.98 191.1,343.86 
			199.85,325.77 		"/>
		<polygon fill="#D7FCA3" points="197.66,455.57 185.59,448.43 183.65,434.55 193.3,424.37 207.27,425.57 215.04,437.24 
			210.76,450.59 		"/>
		<polygon fill="#D7FCA3" points="121.28,363.04 128.27,340.34 150.38,331.65 170.95,343.52 174.5,367 158.36,384.42 134.67,382.66 
					"/>
		<polygon fill="#D7FCA3" points="493.98,484.23 509.67,496.78 509.64,516.88 493.91,529.38 474.33,524.88 465.64,506.77 
			474.39,488.68 		"/>
		<polygon fill="#D7FCA3" points="477.28,465.42 465.21,458.28 463.27,444.4 472.92,434.22 486.89,435.42 494.66,447.09 
			490.38,460.44 		"/>
		<polygon fill="#D7FCA3" points="221.61,429.02 209.54,421.88 207.6,407.99 217.25,397.82 231.22,399.01 238.99,410.68 
			234.72,424.04 		"/>
		<polygon fill="#85E281" points="136.02,675.45 215.5,653.81 194.65,733.31 		"/>
		<polygon fill="#85E281" points="77.54,595.67 158.89,608.62 107.18,672.52 		"/>
		<polygon fill="#85E281" points="153.16,584.64 219.64,633.28 144.48,666.56 		"/>
		<polygon fill="#85E281" points="68.43,714.96 134.68,666.01 144.02,747.68 		"/>
		<polygon fill="#85E281" points="740.42,527.45 821.76,540.41 770.06,604.3 		"/>
		<polygon fill="#85E281" points="681.36,588.55 763.62,584.31 726.34,657.56 		"/>
		<polygon fill="#85E281" points="751.84,635.84 827.28,602.77 818.31,684.47 		"/>
		<polygon fill="#85E281" points="526.33,689.32 605.81,710.96 584.96,631.46 		"/>
		<polygon fill="#85E281" points="498.65,800.86 563.2,852.03 575.31,770.73 		"/>
		<polygon fill="#85E281" points="308.56,246.58 375.04,197.94 299.89,164.66 		"/>
		<polygon fill="#85E281" points="350.72,241.17 416.97,290.11 426.31,208.45 		"/>
		<polygon fill="#85E281" points="574.65,841.04 655.99,828.09 604.29,764.19 		"/>
		<polygon fill="#85E281" points="515.59,779.94 597.85,784.19 560.57,710.94 		"/>
		<polygon fill="#85E281" points="586.06,732.65 661.51,765.72 652.54,684.02 		"/>
		<polygon fill="#D7FCA3" points="181.79,692.56 174.8,715.26 152.69,723.95 132.11,712.09 128.56,688.6 144.71,671.18 
			168.4,672.94 		"/>
		<polygon fill="#D7FCA3" points="117.06,671.64 101.37,659.08 101.4,638.99 117.13,626.49 136.71,630.99 145.4,649.1 
			136.66,667.19 		"/>
		<polygon fill="#D7FCA3" points="161.63,638.47 173.7,645.61 175.64,659.49 165.99,669.67 152.02,668.47 144.25,656.8 
			148.53,643.45 		"/>
		<polygon fill="#D7FCA3" points="810.72,646.7 787.09,649.09 770.49,632.1 773.42,608.53 793.68,596.13 816,604.23 823.59,626.74 
					"/>
		<polygon fill="#D7FCA3" points="315.64,224.72 321.11,205.39 339.63,197.6 357.27,207.23 360.73,227.03 347.42,242.08 
			327.35,241.05 		"/>
		<polygon fill="#D7FCA3" points="398,230.87 396.11,244.76 384.07,251.95 370.95,247.02 366.62,233.68 374.35,221.98 
			388.31,220.73 		"/>
		<polygon fill="#D7FCA3" points="613.81,803.78 606.82,826.48 584.71,835.17 564.14,823.3 560.58,799.82 576.73,782.4 
			600.42,784.16 		"/>
		<polygon fill="#D7FCA3" points="555.14,766.9 539.45,754.35 539.48,734.26 555.2,721.75 574.79,726.25 583.48,744.37 
			574.73,762.46 		"/>
		<polygon fill="#D7FCA3" points="588.13,647.78 600.2,654.93 602.14,668.81 592.49,678.99 578.52,677.79 570.75,666.12 
			575.03,652.77 		"/>
		<polygon fill="#D7FCA3" points="653.3,725.19 646.31,747.89 624.21,756.58 603.63,744.72 600.08,721.23 616.22,703.81 
			639.91,705.57 		"/>
		<polygon fill="#D7FCA3" points="731.29,600.61 715.6,588.05 715.63,567.96 731.36,555.46 750.94,559.96 759.64,578.07 
			750.89,596.16 		"/>
		<polygon fill="#D7FCA3" points="748,619.41 760.07,626.56 762.01,640.44 752.36,650.62 738.39,649.42 730.62,637.75 734.89,624.4 
					"/>
		<polygon fill="#D7FCA3" points="552.97,659.21 565.04,666.36 566.98,680.24 557.33,690.42 543.36,689.22 535.59,677.55 
			539.86,664.2 		"/>
	</g>
</g>
</svg>
