<svg xmlns="http://www.w3.org/2000/svg" viewBox="0 0 1000 1000"><title>cell</title><polygon points="932.46 749.1 932.46 250.9 501 1.79 69.54 250.9 69.54 749.1 501 998.21 932.46 749.1" style="fill:#a0f98d"/><polygon points="802.05 304.06 722.57 325.7 743.42 246.2 802.05 304.06" style="fill:#85e281"/><polygon points="860.53 383.85 779.18 370.89 830.89 306.99 860.53 383.85" style="fill:#85e281"/><polygon points="784.92 394.87 718.44 346.23 793.59 312.95 784.92 394.87" style="fill:#85e281"/><polygon points="869.64 264.55 803.39 313.5 794.05 231.84 869.64 264.55" style="fill:#85e281"/><polygon points="554.07 557.22 472.73 544.26 524.43 480.37 554.07 557.22" style="fill:#85e281"/><polygon points="613.13 496.12 530.87 500.36 568.15 427.11 613.13 496.12" style="fill:#85e281"/><polygon points="542.66 448.83 467.21 481.9 476.18 400.2 542.66 448.83" style="fill:#85e281"/><polygon points="317.46 398.74 237.99 377.1 258.84 456.61 317.46 398.74" style="fill:#85e281"/><polygon points="345.15 287.2 280.59 236.03 268.49 317.33 345.15 287.2" style="fill:#85e281"/><polygon points="392.15 730.85 325.67 779.48 400.83 812.76 392.15 730.85" style="fill:#85e281"/><polygon points="350 736.26 283.74 687.31 274.4 768.98 350 736.26" style="fill:#85e281"/><polygon points="269.15 247.02 187.8 259.98 239.5 323.88 269.15 247.02" style="fill:#85e281"/><polygon points="328.2 308.12 245.94 303.88 283.23 377.13 328.2 308.12" style="fill:#85e281"/><polygon points="257.73 355.41 182.29 322.34 191.25 404.04 257.73 355.41" style="fill:#85e281"/><polygon points="756.28 286.95 763.27 264.25 785.38 255.56 805.96 267.43 809.51 290.91 793.36 308.33 769.67 306.57 756.28 286.95" style="fill:#d7fca3"/><polygon points="821.01 307.87 836.7 320.43 836.67 340.52 820.94 353.02 801.36 348.52 792.67 330.41 801.41 312.31 821.01 307.87" style="fill:#d7fca3"/><polygon points="776.44 341.04 764.37 333.9 762.43 320.02 772.08 309.84 786.05 311.04 793.82 322.71 789.54 336.06 776.44 341.04" style="fill:#d7fca3"/><polygon points="483.77 437.96 507.4 435.58 524 452.57 521.07 476.14 500.81 488.54 478.49 480.44 470.9 457.93 483.77 437.96" style="fill:#d7fca3"/><polygon points="385.07 752.7 379.61 772.04 361.08 779.82 343.45 770.19 339.98 750.4 353.29 735.35 373.36 736.38 385.07 752.7" style="fill:#d7fca3"/><polygon points="302.71 746.56 304.6 732.66 316.64 725.48 329.77 730.41 334.09 743.75 326.37 755.45 312.4 756.7 302.71 746.56" style="fill:#d7fca3"/><polygon points="229.99 284.28 236.98 261.58 259.08 252.89 279.66 264.76 283.21 288.24 267.06 305.66 243.38 303.9 229.99 284.28" style="fill:#d7fca3"/><polygon points="288.66 321.16 304.35 333.71 304.32 353.81 288.59 366.31 269.01 361.81 260.32 343.69 269.06 325.6 288.66 321.16" style="fill:#d7fca3"/><polygon points="266.87 455.4 254.8 448.26 252.86 434.38 262.51 424.2 276.48 425.4 284.25 437.07 279.98 450.42 266.87 455.4" style="fill:#d7fca3"/><polygon points="190.5 362.87 197.48 340.17 219.59 331.48 240.17 343.35 243.72 366.83 227.57 384.25 203.88 382.49 190.5 362.87" style="fill:#d7fca3"/><polygon points="563.2 484.06 578.89 496.61 578.86 516.71 563.13 529.21 543.55 524.71 534.86 506.59 543.6 488.5 563.2 484.06" style="fill:#d7fca3"/><polygon points="546.49 465.25 534.42 458.11 532.48 444.23 542.13 434.05 556.1 435.25 563.87 446.92 559.6 460.27 546.49 465.25" style="fill:#d7fca3"/><polygon points="290.83 428.85 278.76 421.71 276.82 407.82 286.46 397.65 300.44 398.84 308.21 410.51 303.93 423.87 290.83 428.85" style="fill:#d7fca3"/><polygon points="205.24 675.28 284.71 653.64 263.86 733.14 205.24 675.28" style="fill:#85e281"/><polygon points="146.75 595.5 228.1 608.45 176.4 672.35 146.75 595.5" style="fill:#85e281"/><polygon points="222.37 584.47 288.85 633.11 213.69 666.39 222.37 584.47" style="fill:#85e281"/><polygon points="137.64 714.79 203.89 665.84 213.24 747.5 137.64 714.79" style="fill:#85e281"/><polygon points="809.63 527.28 890.98 540.24 839.28 604.13 809.63 527.28" style="fill:#85e281"/><polygon points="750.58 588.38 832.84 584.13 795.55 657.38 750.58 588.38" style="fill:#85e281"/><polygon points="821.05 635.67 896.49 602.6 887.53 684.3 821.05 635.67" style="fill:#85e281"/><polygon points="595.55 689.15 675.03 710.79 654.17 631.29 595.55 689.15" style="fill:#85e281"/><polygon points="567.86 800.69 632.42 851.86 644.52 770.56 567.86 800.69" style="fill:#85e281"/><polygon points="377.78 246.41 444.26 197.77 369.1 164.49 377.78 246.41" style="fill:#85e281"/><polygon points="419.93 241 486.18 289.94 495.53 208.28 419.93 241" style="fill:#85e281"/><polygon points="643.86 840.87 725.21 827.91 673.51 764.02 643.86 840.87" style="fill:#85e281"/><polygon points="584.81 779.77 667.07 784.01 629.78 710.76 584.81 779.77" style="fill:#85e281"/><polygon points="655.28 732.48 730.72 765.55 721.76 683.85 655.28 732.48" style="fill:#85e281"/><polygon points="251 692.39 244.01 715.09 221.91 723.78 201.33 711.91 197.78 688.43 213.92 671.01 237.61 672.77 251 692.39" style="fill:#d7fca3"/><polygon points="186.28 671.47 170.59 658.91 170.62 638.82 186.34 626.32 205.93 630.82 214.62 648.93 205.87 667.02 186.28 671.47" style="fill:#d7fca3"/><polygon points="230.85 638.29 242.91 645.44 244.85 659.32 235.21 669.5 221.24 668.3 213.46 656.63 217.74 643.28 230.85 638.29" style="fill:#d7fca3"/><polygon points="879.93 646.53 856.3 648.92 839.7 631.93 842.63 608.36 862.89 595.96 885.22 604.06 892.8 626.57 879.93 646.53" style="fill:#d7fca3"/><polygon points="384.86 224.55 390.32 205.22 408.85 197.43 426.48 207.06 429.95 226.85 416.64 241.91 396.57 240.88 384.86 224.55" style="fill:#d7fca3"/><polygon points="467.21 230.7 465.33 244.59 453.29 251.78 440.16 246.84 435.83 233.51 443.56 221.81 457.53 220.56 467.21 230.7" style="fill:#d7fca3"/><polygon points="683.02 803.61 676.03 826.31 653.93 835 633.35 823.13 629.8 799.65 645.95 782.23 669.63 783.99 683.02 803.61" style="fill:#d7fca3"/><polygon points="624.35 766.73 608.66 754.18 608.69 734.09 624.42 721.58 644 726.08 652.69 744.2 643.95 762.29 624.35 766.73" style="fill:#d7fca3"/><polygon points="657.35 647.61 669.41 654.75 671.36 668.64 661.71 678.82 647.74 677.62 639.97 665.95 644.24 652.6 657.35 647.61" style="fill:#d7fca3"/><polygon points="722.51 725.02 715.53 747.72 693.42 756.41 672.84 744.55 669.29 721.06 685.44 703.64 709.13 705.4 722.51 725.02" style="fill:#d7fca3"/><polygon points="800.51 600.43 784.82 587.88 784.85 567.79 800.58 555.29 820.16 559.79 828.85 577.9 820.11 595.99 800.51 600.43" style="fill:#d7fca3"/><polygon points="817.22 619.24 829.28 626.38 831.22 640.27 821.58 650.45 807.61 649.25 799.83 637.58 804.11 624.23 817.22 619.24" style="fill:#d7fca3"/><polygon points="622.18 659.04 634.25 666.18 636.19 680.07 626.54 690.25 612.58 689.05 604.8 677.38 609.08 664.03 622.18 659.04" style="fill:#d7fca3"/></svg>