<?xml version="1.0" encoding="utf-8"?>
<!-- Generator: Adobe Illustrator 24.0.0, SVG Export Plug-In . SVG Version: 6.00 Build 0)  -->
<svg version="1.2" baseProfile="tiny" id="Layer_1" xmlns="http://www.w3.org/2000/svg" xmlns:xlink="http://www.w3.org/1999/xlink"
	 x="0px" y="0px" viewBox="0 0 862.92 1000" xml:space="preserve">
<g>
	<polygon fill="#86DAEA" points="863.32,749.27 863.32,251.07 431.87,1.97 0.41,251.07 0.41,749.27 431.87,998.38 	"/>
	<g>
		<polygon fill="#88E8FC" points="520.51,805.39 579.77,763.47 586.44,835.75 		"/>
		<polygon fill="#88E8FC" points="470.95,798.75 530.21,756.83 536.88,829.11 		"/>
		<polygon fill="#88E8FC" points="570.06,812.03 629.33,770.11 636,842.39 		"/>
		<polygon fill="#88E8FC" points="270.94,208.61 330.21,166.69 336.88,238.98 		"/>
		<polygon fill="#88E8FC" points="221.39,201.97 280.65,160.05 287.32,232.34 		"/>
		<polygon fill="#88E8FC" points="320.5,215.25 379.76,173.33 386.43,245.62 		"/>
		<polygon fill="#67C0E0" points="493.43,781.58 552.69,739.66 559.36,811.94 		"/>
		<polygon fill="#67C0E0" points="443.87,774.94 503.13,733.02 509.8,805.3 		"/>
		<polygon fill="#67C0E0" points="542.98,788.22 602.25,746.3 608.92,818.58 		"/>
		<polygon fill="#67C0E0" points="290.28,189.35 349.54,147.44 356.21,219.72 		"/>
		<polygon fill="#67C0E0" points="240.72,182.71 299.99,140.8 306.66,213.08 		"/>
		<polygon fill="#67C0E0" points="339.84,195.99 399.1,154.08 405.77,226.36 		"/>
		<polygon fill="#88E8FC" points="399.42,166.13 458.68,124.21 465.36,196.49 		"/>
		<polygon fill="#88E8FC" points="349.86,159.49 409.13,117.57 415.8,189.85 		"/>
		<polygon fill="#88E8FC" points="448.98,172.77 508.24,130.85 514.91,203.13 		"/>
		<polygon fill="#67C0E0" points="418.76,146.87 478.02,104.95 484.69,177.23 		"/>
		<polygon fill="#67C0E0" points="369.2,140.23 428.46,98.31 435.13,170.59 		"/>
		<polygon fill="#88E8FC" points="326.95,468.35 386.21,426.43 392.88,498.71 		"/>
		<polygon fill="#88E8FC" points="277.39,461.71 336.65,419.79 343.32,492.07 		"/>
		<polygon fill="#88E8FC" points="376.5,474.99 435.77,433.07 442.44,505.36 		"/>
		<polygon fill="#67C0E0" points="346.28,449.09 405.54,407.17 412.21,479.46 		"/>
		<polygon fill="#67C0E0" points="296.72,442.45 355.99,400.53 362.66,472.82 		"/>
		<polygon fill="#67C0E0" points="395.84,455.73 455.1,413.81 461.77,486.1 		"/>
		<polygon fill="#67C0E0" points="468.31,153.51 527.58,111.59 534.25,183.87 		"/>
		<polygon fill="#88E8FC" points="404.29,418.18 463.56,376.26 470.23,448.54 		"/>
		<polygon fill="#88E8FC" points="354.74,411.54 414,369.62 420.67,441.9 		"/>
		<polygon fill="#88E8FC" points="453.85,424.82 513.11,382.9 519.78,455.18 		"/>
		<polygon fill="#67C0E0" points="423.63,398.92 482.89,357 489.56,429.28 		"/>
		<polygon fill="#67C0E0" points="374.07,392.28 433.33,350.36 440.01,422.64 		"/>
		<polygon fill="#67C0E0" points="473.19,405.56 532.45,363.64 539.12,435.92 		"/>
		<polygon fill="#88E8FC" points="89.78,355.86 149.05,313.94 155.72,386.22 		"/>
		<polygon fill="#88E8FC" points="40.23,349.22 99.49,307.3 106.16,379.58 		"/>
		<polygon fill="#88E8FC" points="139.34,362.5 198.6,320.58 205.28,392.86 		"/>
		<polygon fill="#67C0E0" points="109.12,336.6 168.38,294.68 175.05,366.96 		"/>
		<polygon fill="#67C0E0" points="59.56,329.96 118.83,288.04 125.5,360.32 		"/>
		<polygon fill="#67C0E0" points="158.68,343.24 217.94,301.32 224.61,373.6 		"/>
		<polygon fill="#88E8FC" points="621.12,305.98 680.38,264.06 687.05,336.34 		"/>
		<polygon fill="#88E8FC" points="571.56,299.34 630.82,257.42 637.49,329.7 		"/>
		<polygon fill="#88E8FC" points="670.67,312.62 729.94,270.7 736.61,342.98 		"/>
		<polygon fill="#67C0E0" points="640.45,286.72 699.71,244.8 706.38,317.09 		"/>
		<polygon fill="#67C0E0" points="590.89,280.08 650.16,238.16 656.83,310.45 		"/>
		<polygon fill="#67C0E0" points="690.01,293.36 749.27,251.44 755.94,323.73 		"/>
		<polygon fill="#88E8FC" points="704.44,600.48 763.7,558.56 770.37,630.85 		"/>
		<polygon fill="#88E8FC" points="654.88,593.84 714.14,551.92 720.82,624.21 		"/>
		<polygon fill="#88E8FC" points="754,607.12 813.26,565.2 819.93,637.49 		"/>
		<polygon fill="#67C0E0" points="723.77,581.22 783.04,539.31 789.71,611.59 		"/>
		<polygon fill="#67C0E0" points="674.22,574.58 733.48,532.67 740.15,604.95 		"/>
		<polygon fill="#67C0E0" points="773.33,587.86 832.59,545.95 839.26,618.23 		"/>
		<polygon fill="#88E8FC" points="631.79,540.3 691.05,498.38 697.72,570.66 		"/>
		<polygon fill="#88E8FC" points="582.23,533.66 641.49,491.74 648.16,564.02 		"/>
		<polygon fill="#88E8FC" points="681.34,546.94 740.61,505.02 747.28,577.31 		"/>
		<polygon fill="#67C0E0" points="651.12,521.04 710.39,479.12 717.06,551.41 		"/>
		<polygon fill="#67C0E0" points="601.57,514.4 660.83,472.48 667.5,544.77 		"/>
		<polygon fill="#67C0E0" points="700.68,527.68 759.94,485.76 766.61,558.05 		"/>
		<polygon fill="#88E8FC" points="426.21,643.92 485.47,602 492.14,674.28 		"/>
		<polygon fill="#88E8FC" points="376.65,637.28 435.91,595.36 442.58,667.64 		"/>
		<polygon fill="#88E8FC" points="475.76,650.56 535.03,608.64 541.7,680.92 		"/>
		<polygon fill="#67C0E0" points="445.54,624.66 504.8,582.74 511.47,655.02 		"/>
		<polygon fill="#67C0E0" points="395.98,618.02 455.25,576.1 461.92,648.38 		"/>
		<polygon fill="#67C0E0" points="495.1,631.3 554.36,589.38 561.03,661.66 		"/>
		<polygon fill="#88E8FC" points="94.53,559.12 153.79,517.2 160.46,589.48 		"/>
		<polygon fill="#88E8FC" points="44.97,552.48 104.24,510.56 110.91,582.84 		"/>
		<polygon fill="#88E8FC" points="144.09,565.76 203.35,523.84 210.02,596.12 		"/>
		<polygon fill="#67C0E0" points="113.86,539.86 173.13,497.94 179.8,570.22 		"/>
		<polygon fill="#67C0E0" points="64.31,533.22 123.57,491.3 130.24,563.58 		"/>
		<polygon fill="#67C0E0" points="163.42,546.5 222.68,504.58 229.36,576.86 		"/>
		<polygon fill="#88E8FC" points="161.77,810.27 221.03,768.35 227.7,840.64 		"/>
		<polygon fill="#88E8FC" points="112.21,803.63 171.48,761.71 178.15,834 		"/>
		<polygon fill="#88E8FC" points="211.33,816.91 270.59,774.99 277.26,847.28 		"/>
		<polygon fill="#67C0E0" points="181.11,791.01 240.37,749.09 247.04,821.38 		"/>
		<polygon fill="#67C0E0" points="131.55,784.37 190.81,742.45 197.48,814.74 		"/>
		<polygon fill="#67C0E0" points="230.66,797.65 289.93,755.73 296.6,828.02 		"/>
		<polygon fill="#88E8FC" points="226.55,778.59 285.81,736.68 292.48,808.96 		"/>
		<polygon fill="#88E8FC" points="176.99,771.95 236.26,730.04 242.93,802.32 		"/>
		<polygon fill="#88E8FC" points="276.11,785.23 335.37,743.32 342.04,815.6 		"/>
		<polygon fill="#67C0E0" points="245.89,759.33 305.15,717.42 311.82,789.7 		"/>
		<polygon fill="#67C0E0" points="196.33,752.69 255.59,710.78 262.26,783.06 		"/>
		<polygon fill="#67C0E0" points="295.44,765.98 354.71,724.06 361.38,796.34 		"/>
	</g>
</g>
</svg>
