<?xml version="1.0" encoding="utf-8"?>
<!-- Generator: Adobe Illustrator 24.0.0, SVG Export Plug-In . SVG Version: 6.00 Build 0)  -->
<svg version="1.2" baseProfile="tiny" id="Layer_1" xmlns="http://www.w3.org/2000/svg" xmlns:xlink="http://www.w3.org/1999/xlink"
	 x="0px" y="0px" viewBox="0 0 862.92 1000" xml:space="preserve">
<g>
	<polygon fill="#68BCAF" points="864.12,749.27 864.12,251.07 432.66,1.97 1.2,251.07 1.2,749.27 432.66,998.38 	"/>
	<g>
		
			<rect x="756.31" y="313.97" transform="matrix(0.4759 -0.8795 0.8795 0.4759 110.7711 867.166)" fill="#1D666E" width="53.34" height="53.34"/>
		
			<rect x="757.72" y="315.38" transform="matrix(0.9969 -0.0789 0.0789 0.9969 -24.4262 62.8113)" fill="#34698A" width="50.52" height="50.52"/>
		
			<rect x="759.25" y="316.91" transform="matrix(0.1712 -0.9852 0.9852 0.1712 313.3123 1053.7362)" fill="#4488A5" width="47.46" height="47.46"/>
		
			<rect x="764.91" y="322.57" transform="matrix(0.9225 -0.3861 0.3861 0.9225 -70.8066 328.6963)" fill="#76BACB" width="36.14" height="36.14"/>
		
			<rect x="761.55" y="597.85" transform="matrix(0.4759 -0.8795 0.8795 0.4759 -137.2009 1024.7062)" fill="#1D666E" width="59.24" height="59.24"/>
		
			<rect x="763.12" y="599.42" transform="matrix(0.9969 -0.0789 0.0789 0.9969 -47.0218 64.3512)" fill="#34698A" width="56.11" height="56.11"/>
		
			<rect x="764.82" y="601.11" transform="matrix(0.1712 -0.9852 0.9852 0.1712 37.5115 1299.5342)" fill="#4488A5" width="52.72" height="52.72"/>
		
			<rect x="771.1" y="607.4" transform="matrix(0.9225 -0.3861 0.3861 0.9225 -180.9081 354.0994)" fill="#76BACB" width="40.14" height="40.14"/>
		
			<rect x="367.76" y="812.25" transform="matrix(0.4759 -0.8795 0.8795 0.4759 -531.1075 786.5911)" fill="#1D666E" width="53.34" height="53.34"/>
		
			<rect x="369.17" y="813.66" transform="matrix(0.9969 -0.0789 0.0789 0.9969 -64.9336 33.7203)" fill="#34698A" width="50.52" height="50.52"/>
		
			<rect x="370.7" y="815.19" transform="matrix(0.1712 -0.9852 0.9852 0.1712 -499.6308 1083.8955)" fill="#4488A5" width="47.46" height="47.46"/>
		
			<rect x="376.36" y="820.85" transform="matrix(0.9225 -0.3861 0.3861 0.9225 -293.3024 217.3219)" fill="#76BACB" width="36.14" height="36.14"/>
		
			<rect x="95.5" y="313.97" transform="matrix(0.4759 -0.8795 0.8795 0.4759 -235.5642 285.9835)" fill="#1D666E" width="53.34" height="53.34"/>
		
			<rect x="96.91" y="315.38" transform="matrix(0.9969 -0.0789 0.0789 0.9969 -26.4844 10.6962)" fill="#34698A" width="50.52" height="50.52"/>
		
			<rect x="98.44" y="316.91" transform="matrix(0.1712 -0.9852 0.9852 0.1712 -234.357 402.6868)" fill="#4488A5" width="47.46" height="47.46"/>
		
			<rect x="104.1" y="322.57" transform="matrix(0.9225 -0.3861 0.3861 0.9225 -122.0399 73.5773)" fill="#76BACB" width="36.14" height="36.14"/>
		
			<rect x="408.1" y="149.14" transform="matrix(0.4759 -0.8795 0.8795 0.4759 73.2407 474.5217)" fill="#1D666E" width="53.34" height="53.34"/>
		
			<rect x="409.51" y="150.55" transform="matrix(0.9969 -0.0789 0.0789 0.9969 -12.5111 34.8358)" fill="#34698A" width="50.52" height="50.52"/>
		
			<rect x="411.03" y="152.08" transform="matrix(0.1712 -0.9852 0.9852 0.1712 187.1166 574.0546)" fill="#4488A5" width="47.46" height="47.46"/>
		
			<rect x="416.7" y="157.74" transform="matrix(0.9225 -0.3861 0.3861 0.9225 -34.1668 181.4817)" fill="#76BACB" width="36.14" height="36.14"/>
		
			<rect x="340.46" y="357.08" transform="matrix(0.4759 -0.8795 0.8795 0.4759 -141.7274 510.7441)" fill="#1D666E" width="34.42" height="34.42"/>
		
			<rect x="341.37" y="357.99" transform="matrix(0.9969 -0.0789 0.0789 0.9969 -28.4045 29.3741)" fill="#34698A" width="32.6" height="32.6"/>
		
			<rect x="342.36" y="358.97" transform="matrix(0.1712 -0.9852 0.9852 0.1712 -72.3249 662.5986)" fill="#4488A5" width="30.63" height="30.63"/>
		
			<rect x="346.01" y="362.63" transform="matrix(0.9225 -0.3861 0.3861 0.9225 -116.7711 167.1071)" fill="#76BACB" width="23.32" height="23.32"/>
		
			<rect x="45.08" y="542.91" transform="matrix(0.4759 -0.8795 0.8795 0.4759 -464.3956 365.7697)" fill="#1D666E" width="59.24" height="59.24"/>
		
			<rect x="46.64" y="544.48" transform="matrix(0.9969 -0.0789 0.0789 0.9969 -44.9208 7.6746)" fill="#34698A" width="56.11" height="56.11"/>
		
			<rect x="48.34" y="546.17" transform="matrix(0.1712 -0.9852 0.9852 0.1712 -502.1699 548.1069)" fill="#4488A5" width="52.72" height="52.72"/>
		
			<rect x="54.63" y="552.46" transform="matrix(0.9225 -0.3861 0.3861 0.9225 -215.2479 73.2289)" fill="#76BACB" width="40.14" height="40.14"/>
		
			<rect x="498.87" y="545.55" transform="matrix(0.4759 -0.8795 0.8795 0.4759 -228.8842 766.2621)" fill="#1D666E" width="59.24" height="59.24"/>
		
			<rect x="500.43" y="547.12" transform="matrix(0.9969 -0.0789 0.0789 0.9969 -43.7156 43.4712)" fill="#34698A" width="56.11" height="56.11"/>
		
			<rect x="502.13" y="548.82" transform="matrix(0.1712 -0.9852 0.9852 0.1712 -128.6783 997.3828)" fill="#4488A5" width="52.72" height="52.72"/>
		
			<rect x="508.42" y="555.1" transform="matrix(0.9225 -0.3861 0.3861 0.9225 -181.0849 248.6283)" fill="#76BACB" width="40.14" height="40.14"/>
		
			<rect x="609.63" y="204.04" transform="matrix(0.4759 -0.8795 0.8795 0.4759 133.9428 667.2712)" fill="#1D666E" width="34.42" height="34.42"/>
		
			<rect x="610.54" y="204.95" transform="matrix(0.9969 -0.0789 0.0789 0.9969 -15.4967 50.1257)" fill="#34698A" width="32.6" height="32.6"/>
		
			<rect x="611.53" y="205.94" transform="matrix(0.1712 -0.9852 0.9852 0.1712 301.5359 800.9577)" fill="#4488A5" width="30.63" height="30.63"/>
		
			<rect x="615.18" y="209.59" transform="matrix(0.9225 -0.3861 0.3861 0.9225 -36.819 259.1604)" fill="#76BACB" width="23.32" height="23.32"/>
		
			<rect x="586.3" y="748.6" transform="matrix(0.4759 -0.8795 0.8795 0.4759 -357.2224 932.1613)" fill="#1D666E" width="34.42" height="34.42"/>
		
			<rect x="587.21" y="749.51" transform="matrix(0.9969 -0.0789 0.0789 0.9969 -58.5163 49.9821)" fill="#34698A" width="32.6" height="32.6"/>
		
			<rect x="588.2" y="750.49" transform="matrix(0.1712 -0.9852 0.9852 0.1712 -254.3124 1229.296)" fill="#4488A5" width="30.63" height="30.63"/>
		
			<rect x="591.85" y="754.14" transform="matrix(0.9225 -0.3861 0.3861 0.9225 -248.8653 292.3744)" fill="#76BACB" width="23.32" height="23.32"/>
		
			<rect x="157.78" y="754.79" transform="matrix(0.4759 -0.8795 0.8795 0.4759 -587.2641 558.5194)" fill="#1D666E" width="34.42" height="34.42"/>
		
			<rect x="158.69" y="755.7" transform="matrix(0.9969 -0.0789 0.0789 0.9969 -60.3396 16.2055)" fill="#34698A" width="32.6" height="32.6"/>
		
			<rect x="159.68" y="756.69" transform="matrix(0.1712 -0.9852 0.9852 0.1712 -615.5713 812.2339)" fill="#4488A5" width="30.63" height="30.63"/>
		
			<rect x="163.33" y="760.34" transform="matrix(0.9225 -0.3861 0.3861 0.9225 -284.4809 127.4137)" fill="#76BACB" width="23.32" height="23.32"/>
	</g>
</g>
</svg>
