<?xml version="1.0" encoding="utf-8"?>
<!-- Generator: Adobe Illustrator 24.0.0, SVG Export Plug-In . SVG Version: 6.00 Build 0)  -->
<svg version="1.2" baseProfile="tiny" id="Layer_1" xmlns="http://www.w3.org/2000/svg" xmlns:xlink="http://www.w3.org/1999/xlink"
	 x="0px" y="0px" viewBox="0 0 1000 1000" xml:space="preserve">
<g>
	<polygon fill="#59666B" points="246.81,268.79 425.42,167.53 576.29,166.91 756.4,272.79 754.09,567 498.14,712.1 244.5,563 	"/>
	<polygon fill="#59666B" points="634.45,227.98 844.14,109.41 993.49,240.39 939.38,514.78 818.11,600.26 689.6,550.7 	"/>
	<polygon fill="#59666B" points="371.49,229.98 161.8,111.41 12.45,242.39 66.56,516.78 187.83,602.26 316.34,552.7 	"/>
	<polygon fill="#59666B" points="417.94,597.68 624.23,597.68 673.26,808.06 589.51,940.83 428.15,969.43 274.96,846.87 
		319.89,705.94 391.38,730.45 373,791.72 442.45,838.7 500,795.81 	"/>
</g>
</svg>
